<?xml version="1.0" encoding="utf-8"?>
<!-- Generator: Adobe Illustrator 23.0.3, SVG Export Plug-In . SVG Version: 6.00 Build 0)  -->
<svg version="1.1" id="Layer_1" xmlns="http://www.w3.org/2000/svg" xmlns:xlink="http://www.w3.org/1999/xlink" x="0px" y="0px"
	 viewBox="0 0 430.96 431.3" style="enable-background:new 0 0 430.96 431.3;" xml:space="preserve">
<style type="text/css">
	.st0{fill:#333333;}
</style>
<path class="st0" d="M429.31,137.83c-2.84-3.21-42.17-52.59-49.11-60.97c-6.93-8.38-10.31-6.86-14.58-6.24
	c-4.27,0.62-54.03,9-59.81,9.98c-5.78,0.98-9.42,3.3-5.87,8.29c3.16,4.44,35.88,50.96,43.08,61.21l-130.07,31.25L109.53,7.89
	c-4.12-6.12-4.97-8.26-14.34-7.84C85.81,0.48,14.04,6.46,8.93,6.89C3.81,7.32-1.8,9.6,3.31,21.7
	c5.11,12.11,86.63,188.29,88.9,193.42c2.27,5.13,8.18,13.44,22.01,10.11c14.17-3.42,63.31-16.28,90.16-23.33
	c14.19,25.77,43.12,78.04,48.47,85.54c7.14,10,12.06,8.35,23.03,5.01c8.56-2.6,134-47.85,139.65-50.18c5.65-2.33,9.14-4,5.32-9.67
	c-2.81-4.17-35.9-48.63-53.23-71.89c11.87-3.17,54.08-14.44,58.58-15.66C431.44,143.62,432.16,141.04,429.31,137.83z M192.85,186.32
	c-1.55,0.33-74.41,17.82-78.29,18.71c-3.89,0.89-3.89,0.45-4.33-0.89c-0.44-1.34-86.62-179.56-87.81-181.79s-1.13-3.99,0-3.99
	c1.13,0,68.8-6.07,71.2-6.19c2.39-0.13,2.14,0.38,3.02,1.9c0,0,95.44,165.24,97.11,168.13
	C195.41,185.09,194.41,185.99,192.85,186.32z M398.25,224.93c1.16,1.83,2.32,3-1.33,4.33c-3.65,1.33-123.3,41.83-125.62,42.83
	s-4.15,1.33-7.14-3c-2.99-4.33-41.92-71.9-41.92-71.9l126.83-33.1c3.16-1,4.15-1.67,6.15,1.5
	C357.21,168.77,397.09,223.1,398.25,224.93z M406.38,134.62c-2.84,0.62-49.41,12.21-49.41,12.21l-38.09-52.41
	c-1.07-1.52-1.96-3.03,0.71-3.39c2.67-0.36,45.95-8.2,47.9-8.65c1.96-0.45,3.64-0.98,6.04,2.32c2.4,3.3,35.33,45.1,36.58,46.71
	C411.36,133.01,409.23,133.99,406.38,134.62z"/>
</svg>
