<?xml version="1.0" encoding="utf-8"?>
<!-- Generator: Adobe Illustrator 23.0.3, SVG Export Plug-In . SVG Version: 6.00 Build 0)  -->
<svg version="1.1" id="Layer_1" xmlns="http://www.w3.org/2000/svg" xmlns:xlink="http://www.w3.org/1999/xlink" x="0px" y="0px"
	 viewBox="0 0 64 63.98" style="enable-background:new 0 0 64 63.98;" xml:space="preserve">
<style type="text/css">
	.st0{fill-rule:evenodd;clip-rule:evenodd;fill:#333333;}
</style>
<path class="st0" d="M16.04,12.95c2.13-8.53,7.47-12.8,16-12.8c12.8,0,14.4,9.6,20.8,11.2c4.27,1.07,8-0.53,11.2-4.8
	c-2.13,8.53-7.47,12.8-16,12.8c-12.8,0-14.4-9.6-20.8-11.2C22.97,7.08,19.24,8.68,16.04,12.95z M0.04,32.15
	c2.13-8.53,7.47-12.8,16-12.8c12.8,0,14.4,9.6,20.8,11.2c4.27,1.07,8-0.53,11.2-4.8c-2.13,8.53-7.47,12.8-16,12.8
	c-12.8,0-14.4-9.6-20.8-11.2C6.97,26.28,3.24,27.88,0.04,32.15z"/>
</svg>
